<svg xmlns="http://www.w3.org/2000/svg" xmlns:xlink="http://www.w3.org/1999/xlink" preserveAspectRatio="xMidYMid" width="200" height="200" viewBox="0 0 200 200">
  <defs>
    <style>
      .cls-1 {
        fill: #b6b6b6;
        fill-rule: evenodd;
      }
    </style>
  </defs>
  <path d="M179.000,184.000 L174.000,184.000 L174.000,195.000 C174.000,195.000 173.130,196.548 171.000,198.000 L167.000,198.000 C167.000,198.000 164.996,197.665 164.000,195.000 L164.000,184.000 L119.539,184.000 C117.718,192.013 110.564,198.000 102.000,198.000 L20.000,198.000 C10.059,198.000 2.000,189.941 2.000,180.000 L2.000,127.000 C2.000,117.059 10.059,109.000 20.000,109.000 L36.000,109.000 L36.000,102.000 C36.000,102.000 39.393,89.761 52.000,87.000 L69.000,87.000 C69.000,87.000 73.862,87.704 76.000,90.000 L76.000,66.000 C76.000,66.000 79.983,50.679 94.000,49.000 L100.000,49.000 L100.000,19.000 C100.000,19.000 103.188,3.452 118.000,2.000 L157.000,2.000 C157.000,2.000 171.465,5.506 174.000,20.000 L174.000,49.000 L181.000,49.000 C181.000,49.000 196.000,53.280 198.000,67.000 L198.000,165.000 C198.000,165.000 196.013,180.045 179.000,184.000 ZM29.000,119.000 L19.000,119.000 C19.000,119.000 15.250,119.250 12.000,125.000 L12.000,182.000 C12.000,182.000 12.875,185.875 17.000,188.000 L29.000,188.000 L29.000,119.000 ZM92.000,189.000 L103.000,189.000 C103.000,189.000 108.750,186.000 110.000,182.000 L110.000,126.000 C110.000,126.000 108.500,120.625 103.000,119.000 L92.000,119.000 L92.000,189.000 ZM75.000,104.000 C74.130,98.888 69.000,97.000 69.000,97.000 L53.000,97.000 C48.433,97.950 46.000,104.000 46.000,104.000 L46.000,110.000 L75.000,110.000 L75.000,104.000 ZM83.000,119.000 L39.000,119.000 L39.000,189.000 L83.000,189.000 L83.000,119.000 ZM164.000,20.000 C164.000,20.000 163.456,13.865 154.000,11.000 L120.000,11.000 C120.000,11.000 114.095,11.373 110.000,20.000 L110.000,49.000 L164.000,49.000 L164.000,20.000 ZM189.000,69.000 C189.000,69.000 187.834,62.343 178.000,58.000 L96.000,58.000 C96.000,58.000 89.750,59.113 85.000,68.000 L85.000,80.000 L189.000,80.000 L189.000,69.000 ZM189.000,89.000 L85.000,89.000 L85.000,109.000 C85.000,109.000 107.368,107.882 110.000,111.000 C110.000,111.000 117.826,114.093 120.000,124.000 L120.000,174.000 L177.000,174.000 C177.000,174.000 184.447,173.366 188.000,164.000 L189.000,163.000 L189.000,89.000 Z" class="cls-1"/>
</svg>
