<svg xmlns="http://www.w3.org/2000/svg" xmlns:xlink="http://www.w3.org/1999/xlink" preserveAspectRatio="xMidYMid" width="252" height="260" viewBox="0 0 252 260">
  <defs>
    <style>
      .cls-1 {
        fill: #b6b6b6;
        fill-rule: evenodd;
      }
    </style>
  </defs>
  <path d="M158.500,130.000 C157.997,130.000 157.500,130.026 157.000,130.038 L157.000,19.000 L18.000,19.000 L18.000,168.000 L99.699,168.000 C96.897,174.208 95.050,180.936 94.337,188.000 L18.000,188.000 L18.000,215.000 L97.330,215.000 C99.517,221.528 102.718,227.591 106.749,233.000 L20.000,233.000 C8.954,233.000 0.000,224.046 0.000,213.000 L0.000,20.000 C0.000,8.954 8.954,0.000 20.000,0.000 L164.000,0.000 C169.523,0.000 174.000,4.477 174.000,10.000 L174.000,131.888 C169.033,130.662 163.845,130.000 158.500,130.000 ZM45.000,54.000 C45.000,48.477 49.477,44.000 55.000,44.000 L121.000,44.000 C126.523,44.000 131.000,48.477 131.000,54.000 C131.000,59.523 126.523,64.000 121.000,64.000 L55.000,64.000 C49.477,64.000 45.000,59.523 45.000,54.000 Z" class="cls-1"/>
  <path d="M158.500,259.000 C122.878,259.000 94.000,230.122 94.000,194.500 C94.000,158.878 122.878,130.000 158.500,130.000 C194.122,130.000 223.000,158.878 223.000,194.500 C223.000,230.122 194.122,259.000 158.500,259.000 ZM158.500,143.000 C129.505,143.000 106.000,166.505 106.000,195.500 C106.000,224.495 129.505,248.000 158.500,248.000 C187.495,248.000 211.000,224.495 211.000,195.500 C211.000,166.505 187.495,143.000 158.500,143.000 Z" class="cls-1"/>
  <path d="M120.000,194.231 L130.759,183.338 L153.172,203.308 L186.345,167.000 L198.000,176.985 L153.172,226.000 L120.000,194.231 Z" class="cls-1"/>
</svg>
