<svg xmlns="http://www.w3.org/2000/svg" xmlns:xlink="http://www.w3.org/1999/xlink" preserveAspectRatio="xMidYMid" width="174" height="175" viewBox="0 0 174 175">
  <defs>
    <style>
      .cls-1 {
        fill: #b6b6b6;
        fill-rule: evenodd;
      }
    </style>
  </defs>
  <path d="M173.000,151.000 L168.000,151.000 L157.000,139.000 L155.800,139.000 L138.000,157.000 L151.000,170.000 L151.000,172.000 L150.000,174.000 L146.000,175.000 L132.000,161.000 L132.000,155.600 L134.000,151.000 L123.650,140.650 C110.757,150.288 94.794,156.000 77.500,156.000 C34.698,156.000 0.000,121.078 0.000,78.000 C0.000,34.922 34.698,-0.000 77.500,-0.000 C96.853,-0.000 114.535,7.156 128.116,18.961 L128.000,19.000 C129.894,24.810 124.895,25.069 123.411,25.023 C111.074,14.422 95.042,8.000 77.500,8.000 C38.564,8.000 7.000,39.564 7.000,78.500 C7.000,117.436 38.564,149.000 77.500,149.000 C116.436,149.000 148.000,117.436 148.000,78.500 C148.000,66.015 144.741,54.296 139.047,44.124 C139.439,39.538 143.268,39.543 145.070,39.812 C151.383,51.102 155.000,64.122 155.000,78.000 C155.000,95.483 149.259,111.600 139.604,124.604 L150.000,135.000 L152.000,135.000 L154.800,132.000 L159.000,132.000 L160.000,133.000 L174.000,146.000 L174.000,149.000 L173.000,151.000 ZM146.000,139.000 L145.000,139.000 L135.909,129.000 L134.000,129.000 L129.000,134.000 L129.000,136.000 L129.143,136.143 C128.987,136.284 128.823,136.416 128.665,136.555 L130.000,137.000 L139.000,146.000 L140.000,147.000 L140.000,146.000 L146.000,141.000 L146.000,139.000 ZM77.500,140.000 C43.534,140.000 16.000,112.465 16.000,78.500 C16.000,44.534 43.534,17.000 77.500,17.000 C111.465,17.000 139.000,44.534 139.000,78.500 C139.000,112.465 111.465,140.000 77.500,140.000 ZM77.500,24.000 C47.400,24.000 23.000,48.400 23.000,78.500 C23.000,108.600 47.400,133.000 77.500,133.000 C107.600,133.000 132.000,108.600 132.000,78.500 C132.000,48.400 107.600,24.000 77.500,24.000 ZM134.500,35.000 C132.567,35.000 131.000,33.433 131.000,31.500 C131.000,29.567 132.567,28.000 134.500,28.000 C136.433,28.000 138.000,29.567 138.000,31.500 C138.000,33.433 136.433,35.000 134.500,35.000 Z" class="cls-1"/>
  <path d="M100.000,116.000 L55.000,116.000 C50.582,116.000 47.000,112.418 47.000,108.000 L47.000,49.000 C47.000,44.582 50.582,41.000 55.000,41.000 L100.000,41.000 C102.761,41.000 105.000,43.239 105.000,46.000 L105.000,111.000 C105.000,113.761 102.761,116.000 100.000,116.000 ZM98.000,48.000 L54.000,48.000 L54.000,95.000 L98.000,95.000 L98.000,48.000 ZM98.000,102.000 L54.000,102.000 L54.000,110.000 L98.000,110.000 L98.000,102.000 ZM65.500,55.000 L87.500,55.000 C89.433,55.000 91.000,56.567 91.000,58.500 C91.000,60.433 89.433,62.000 87.500,62.000 L65.500,62.000 C63.567,62.000 62.000,60.433 62.000,58.500 C62.000,56.567 63.567,55.000 65.500,55.000 Z" class="cls-1"/>
</svg>
