<svg xmlns="http://www.w3.org/2000/svg" xmlns:xlink="http://www.w3.org/1999/xlink" preserveAspectRatio="xMidYMid" width="193" height="150" viewBox="0 0 193 150">
  <defs>
    <style>
      .cls-1 {
        fill: #b6b6b6;
        fill-rule: evenodd;
      }
    </style>
  </defs>
  <path d="M169.000,150.000 L24.000,150.000 C10.745,150.000 -0.000,139.255 -0.000,126.000 L-0.000,24.000 C-0.000,10.745 10.745,-0.000 24.000,-0.000 L169.000,-0.000 C182.255,-0.000 193.000,10.745 193.000,24.000 L193.000,126.000 C193.000,139.255 182.255,150.000 169.000,150.000 ZM176.000,18.000 L17.000,18.000 L17.000,132.000 L176.000,132.000 L176.000,18.000 ZM37.500,103.000 L58.500,103.000 C62.090,103.000 65.000,105.910 65.000,109.500 C65.000,113.090 62.090,116.000 58.500,116.000 L37.500,116.000 C33.910,116.000 31.000,113.090 31.000,109.500 C31.000,105.910 33.910,103.000 37.500,103.000 ZM81.500,103.000 L122.500,103.000 C126.090,103.000 129.000,105.910 129.000,109.500 C129.000,113.090 126.090,116.000 122.500,116.000 L81.500,116.000 C77.910,116.000 75.000,113.090 75.000,109.500 C75.000,105.910 77.910,103.000 81.500,103.000 ZM32.000,83.000 C32.000,79.134 35.134,76.000 39.000,76.000 L154.000,76.000 C157.866,76.000 161.000,79.134 161.000,83.000 C161.000,86.866 157.866,90.000 154.000,90.000 L39.000,90.000 C35.134,90.000 32.000,86.866 32.000,83.000 ZM153.000,64.000 L125.000,64.000 C121.134,64.000 118.000,60.866 118.000,57.000 L118.000,41.000 C118.000,37.134 121.134,34.000 125.000,34.000 L153.000,34.000 C156.866,34.000 160.000,37.134 160.000,41.000 L160.000,57.000 C160.000,60.866 156.866,64.000 153.000,64.000 Z" class="cls-1"/>
</svg>
