<?xml version="1.0" standalone="no"?>
<!DOCTYPE svg PUBLIC "-//W3C//DTD SVG 20010904//EN"
 "http://www.w3.org/TR/2001/REC-SVG-20010904/DTD/svg10.dtd">
<svg version="1.0" xmlns="http://www.w3.org/2000/svg"
 width="55.000000pt" height="64.000000pt" viewBox="0 0 55.000000 64.000000"
 preserveAspectRatio="xMidYMid meet">

<g transform="translate(0.000000,64.000000) scale(0.100000,-0.100000)"
fill="#000000" stroke="none">
<path d="M0 435 c0 -176 2 -205 15 -205 11 0 15 12 15 45 0 38 3 45 20 45 19
0 20 7 20 160 l0 160 -35 0 -35 0 0 -205z"/>
<path d="M130 625 c0 -13 23 -15 145 -15 122 0 145 2 145 15 0 13 -23 15 -145
15 -122 0 -145 -2 -145 -15z"/>
<path d="M480 495 c0 -122 2 -145 15 -145 12 0 15 -13 15 -60 0 -53 2 -60 20
-60 19 0 20 7 20 205 l0 205 -35 0 -35 0 0 -145z"/>
<path d="M130 500 c0 -38 4 -50 15 -50 10 0 15 10 15 30 0 28 3 30 35 30 28 0
35 4 35 20 0 17 -7 20 -50 20 l-50 0 0 -50z"/>
<path d="M320 530 c0 -16 7 -20 35 -20 32 0 35 -2 35 -30 0 -20 5 -30 15 -30
11 0 15 12 15 50 l0 50 -50 0 c-43 0 -50 -3 -50 -20z"/>
<path d="M190 450 l0 -30 80 0 80 0 0 30 0 30 -80 0 -80 0 0 -30z"/>
<path d="M100 405 c0 -10 10 -15 30 -15 20 0 30 5 30 15 0 10 -10 15 -30 15
-20 0 -30 -5 -30 -15z"/>
<path d="M390 405 c0 -10 10 -15 30 -15 20 0 30 5 30 15 0 10 -10 15 -30 15
-20 0 -30 -5 -30 -15z"/>
<path d="M100 305 c0 -8 -7 -15 -15 -15 -12 0 -15 -14 -15 -65 l0 -65 205 0
205 0 0 65 c0 51 -3 65 -15 65 -8 0 -15 7 -15 15 0 13 -26 15 -175 15 -149 0
-175 -2 -175 -15z"/>
<path d="M30 115 c0 -13 33 -15 240 -15 207 0 240 2 240 15 0 13 -33 15 -240
15 -207 0 -240 -2 -240 -15z"/>
<path d="M0 15 c0 -10 11 -15 35 -15 24 0 35 5 35 15 0 10 -11 15 -35 15 -24
0 -35 -5 -35 -15z"/>
<path d="M100 15 c0 -13 26 -15 175 -15 149 0 175 2 175 15 0 13 -26 15 -175
15 -149 0 -175 -2 -175 -15z"/>
<path d="M480 15 c0 -10 11 -15 35 -15 24 0 35 5 35 15 0 10 -11 15 -35 15
-24 0 -35 -5 -35 -15z"/>
</g>
</svg>
