<?xml version="1.0" standalone="no"?>
<!DOCTYPE svg PUBLIC "-//W3C//DTD SVG 20010904//EN"
 "http://www.w3.org/TR/2001/REC-SVG-20010904/DTD/svg10.dtd">
<svg version="1.0" xmlns="http://www.w3.org/2000/svg"
 width="24.000000pt" height="26.000000pt" viewBox="0 0 24.000000 26.000000"
 preserveAspectRatio="xMidYMid meet">

<g transform="translate(0.000000,26.000000) scale(0.100000,-0.100000)"
fill="#000000" stroke="none">
<path d="M95 251 c-3 -6 -4 -15 -1 -20 3 -5 -7 -14 -23 -21 -17 -7 -38 -29
-52 -54 l-22 -43 23 -41 c17 -31 35 -46 65 -58 40 -15 44 -15 84 5 22 12 41
23 41 25 0 2 6 19 14 38 13 30 13 38 -3 74 -12 26 -29 45 -49 53 -17 7 -29 19
-28 29 1 19 -38 29 -49 13z m70 -57 c19 -8 45 -55 45 -83 0 -11 -12 -33 -26
-50 -37 -44 -91 -44 -128 0 -14 17 -26 40 -26 53 0 21 24 64 44 78 13 9 69 10
91 2z"/>
<path d="M82 183 c-7 -3 -19 -18 -28 -35 -13 -25 -13 -35 -4 -59 7 -16 17 -29
23 -29 7 0 7 4 -1 12 -7 7 -12 27 -12 45 0 38 36 69 70 58 11 -4 20 -2 20 4 0
11 -44 14 -68 4z"/>
<path d="M132 146 c-31 -20 -39 -45 -16 -53 10 -3 59 66 52 72 -2 1 -18 -7
-36 -19z"/>
</g>
</svg>
