<svg xmlns="http://www.w3.org/2000/svg" xmlns:xlink="http://www.w3.org/1999/xlink" preserveAspectRatio="xMidYMid" width="225" height="215" viewBox="0 0 225 215">
  <defs>
    <style>
      .cls-1 {
        fill: #969696;
        fill-rule: evenodd;
      }
    </style>
  </defs>
  <path d="M220.000,173.000 L161.000,173.000 C154.833,172.833 155.000,169.000 155.000,169.000 L155.000,136.000 C155.000,130.667 160.000,130.000 160.000,130.000 L172.000,130.000 L172.000,120.000 L181.000,125.000 L181.000,130.000 L199.000,130.000 L199.000,122.000 L203.000,118.000 C204.667,116.000 204.000,113.000 204.000,113.000 C206.000,113.000 208.000,116.000 208.000,116.000 L208.000,130.000 L216.000,130.000 C222.667,128.500 225.000,134.000 225.000,134.000 L225.000,168.000 C224.667,171.333 220.000,173.000 220.000,173.000 ZM183.000,116.000 L154.000,103.000 C154.000,103.000 150.333,102.333 149.000,96.000 L144.000,64.000 L143.000,64.000 L141.000,100.000 C141.000,100.000 140.167,108.333 164.000,117.000 L164.000,123.000 C164.000,123.000 157.000,119.167 151.000,127.000 L150.000,127.000 L147.000,121.000 L141.000,121.000 L147.000,156.000 C147.000,156.000 148.000,162.000 145.000,166.000 L129.000,209.000 C129.000,209.000 125.333,216.000 117.000,214.000 C117.000,214.000 108.333,210.833 111.000,202.000 L126.000,160.000 L128.000,155.000 C128.000,155.000 124.167,146.667 121.000,119.000 L124.000,79.000 L122.000,79.000 C122.000,79.000 110.333,91.000 104.000,104.000 C104.000,104.000 97.500,117.333 94.000,118.000 C94.000,118.000 93.333,115.833 88.000,126.000 L44.000,191.000 C44.000,191.000 43.333,193.667 46.000,197.000 C46.000,197.000 48.833,211.000 33.000,215.000 C33.000,215.000 16.833,214.000 19.000,198.000 L0.000,185.000 L0.000,179.000 L49.000,106.000 C49.000,106.000 52.833,103.500 56.000,106.000 L79.000,121.000 L84.000,115.000 L84.000,113.000 C84.000,113.000 81.833,111.000 84.000,107.000 L103.000,76.000 C103.000,76.000 103.667,73.167 110.000,68.000 C110.000,68.000 122.000,56.833 126.000,55.000 C126.000,55.000 125.833,50.500 129.000,47.000 C129.000,47.000 132.000,43.000 138.000,43.000 C138.000,43.000 156.000,44.833 164.000,45.000 C164.000,45.000 173.333,49.667 173.000,57.000 L171.000,82.000 L162.000,62.000 L160.000,61.000 L164.000,88.000 C164.000,88.000 169.667,92.667 177.000,95.000 L193.000,103.000 C193.000,103.000 199.833,106.833 195.000,115.000 C195.000,115.000 189.333,119.667 183.000,116.000 ZM32.000,196.000 C29.239,196.000 27.000,198.239 27.000,201.000 C27.000,203.761 29.239,206.000 32.000,206.000 C34.761,206.000 37.000,203.761 37.000,201.000 C37.000,198.239 34.761,196.000 32.000,196.000 ZM156.000,36.000 C146.059,36.000 138.000,27.941 138.000,18.000 C138.000,8.059 146.059,-0.000 156.000,-0.000 C165.941,-0.000 174.000,8.059 174.000,18.000 C174.000,27.941 165.941,36.000 156.000,36.000 ZM192.000,195.000 C194.667,205.167 193.000,209.000 193.000,209.000 C189.000,215.500 184.000,214.000 184.000,214.000 C178.500,214.500 175.000,209.000 175.000,209.000 L172.000,195.000 L168.000,181.000 L189.000,181.000 L192.000,195.000 Z" class="cls-1"/>
</svg>
